<svg width="360" height="266" viewBox="0 0 360 266" fill="none" xmlns="http://www.w3.org/2000/svg">
<g clip-path="url(#clip0_5839_1679)">
<path opacity="0.08" d="M321 360.5C389.759 360.5 445.5 304.759 445.5 236C445.5 167.241 389.759 111.5 321 111.5C252.241 111.5 196.5 167.241 196.5 236C196.5 304.759 252.241 360.5 321 360.5Z" fill="#6000D5" stroke="#CCA2FF" stroke-width="19"/>
</g>
<path opacity="0.04" d="M186.5 86C210.524 86 230 66.7482 230 43C230 19.2518 210.524 0 186.5 0C162.476 0 143 19.2518 143 43C143 66.7482 162.476 86 186.5 86Z" fill="#6000D5"/>
<g filter="url(#filter0_di_5839_1679)">
<path d="M30.5 215.5H51.5C51.6972 215.501 51.8926 215.463 52.075 215.387C52.2573 215.312 52.423 215.202 52.5624 215.062C52.7019 214.923 52.8123 214.757 52.8874 214.575C52.9625 214.393 53.0008 214.197 53 214V202C53 200.409 52.3679 198.883 51.2427 197.757C50.1174 196.632 48.5913 196 47 196H35C33.4087 196 31.8826 196.632 30.7574 197.757C29.6322 198.883 29 200.409 29 202V214C28.9992 214.197 29.0375 214.393 29.1126 214.575C29.1877 214.757 29.2981 214.923 29.4376 215.062C29.577 215.202 29.7427 215.312 29.925 215.387C30.1074 215.463 30.3028 215.501 30.5 215.5Z" fill="#F4EBFF" fill-opacity="0.01"/>
</g>
<path d="M30.5 215.5H51.5C51.6972 215.501 51.8926 215.463 52.075 215.387C52.2573 215.312 52.423 215.202 52.5624 215.062C52.7019 214.923 52.8123 214.757 52.8874 214.575C52.9625 214.393 53.0008 214.197 53 214V202C53 200.409 52.3679 198.883 51.2427 197.757C50.1174 196.632 48.5913 196 47 196H35C33.4087 196 31.8826 196.632 30.7574 197.757C29.6322 198.883 29 200.409 29 202V214C28.9992 214.197 29.0375 214.393 29.1126 214.575C29.1877 214.757 29.2981 214.923 29.4376 215.062C29.577 215.202 29.7427 215.312 29.925 215.387C30.1074 215.463 30.3028 215.501 30.5 215.5Z" fill="#F4EBFF"/>
<g filter="url(#filter1_di_5839_1679)">
<path d="M71 166C69.4087 166 67.8826 166.632 66.7574 167.757C65.6322 168.883 65 170.409 65 172V214C64.9992 214.197 65.0375 214.393 65.1126 214.575C65.1877 214.757 65.2981 214.923 65.4376 215.062C65.577 215.202 65.7427 215.312 65.925 215.387C66.1074 215.463 66.3028 215.501 66.5 215.5H87.5C87.6972 215.501 87.8926 215.463 88.075 215.387C88.2573 215.312 88.423 215.202 88.5624 215.062C88.7019 214.923 88.8123 214.757 88.8874 214.575C88.9625 214.393 89.0008 214.197 89 214V172C89 170.409 88.3679 168.883 87.2427 167.757C86.1174 166.632 84.5913 166 83 166H71Z" fill="#F4EBFF" fill-opacity="0.01"/>
</g>
<path d="M71 166C69.4087 166 67.8826 166.632 66.7574 167.757C65.6322 168.883 65 170.409 65 172V214C64.9992 214.197 65.0375 214.393 65.1126 214.575C65.1877 214.757 65.2981 214.923 65.4376 215.062C65.577 215.202 65.7427 215.312 65.925 215.387C66.1074 215.463 66.3028 215.501 66.5 215.5H87.5C87.6972 215.501 87.8926 215.463 88.075 215.387C88.2573 215.312 88.423 215.202 88.5624 215.062C88.7019 214.923 88.8123 214.757 88.8874 214.575C88.9625 214.393 89.0008 214.197 89 214V172C89 170.409 88.3679 168.883 87.2427 167.757C86.1174 166.632 84.5913 166 83 166H71Z" fill="#F4EBFF"/>
<g filter="url(#filter2_di_5839_1679)">
<path d="M107 178C105.409 178 103.883 178.632 102.757 179.757C101.632 180.883 101 182.409 101 184V214C100.999 214.197 101.037 214.393 101.113 214.575C101.188 214.757 101.298 214.923 101.438 215.062C101.577 215.202 101.743 215.312 101.925 215.387C102.107 215.463 102.303 215.501 102.5 215.5H123.5C123.697 215.501 123.893 215.463 124.075 215.387C124.257 215.312 124.423 215.202 124.562 215.062C124.702 214.923 124.812 214.757 124.887 214.575C124.963 214.393 125.001 214.197 125 214V184C125 182.409 124.368 180.883 123.243 179.757C122.117 178.632 120.591 178 119 178H107Z" fill="#F4EBFF" fill-opacity="0.01"/>
</g>
<path d="M107 178C105.409 178 103.883 178.632 102.757 179.757C101.632 180.883 101 182.409 101 184V214C100.999 214.197 101.037 214.393 101.113 214.575C101.188 214.757 101.298 214.923 101.438 215.062C101.577 215.202 101.743 215.312 101.925 215.387C102.107 215.463 102.303 215.501 102.5 215.5H123.5C123.697 215.501 123.893 215.463 124.075 215.387C124.257 215.312 124.423 215.202 124.562 215.062C124.702 214.923 124.812 214.757 124.887 214.575C124.963 214.393 125.001 214.197 125 214V184C125 182.409 124.368 180.883 123.243 179.757C122.117 178.632 120.591 178 119 178H107Z" fill="#F4EBFF"/>
<g filter="url(#filter3_di_5839_1679)">
<path d="M143 136C141.409 136 139.883 136.632 138.757 137.757C137.632 138.883 137 140.409 137 142V214C136.999 214.197 137.037 214.393 137.113 214.575C137.188 214.757 137.298 214.923 137.438 215.062C137.577 215.202 137.743 215.312 137.925 215.387C138.107 215.463 138.303 215.501 138.5 215.5H159.5C159.697 215.501 159.893 215.463 160.075 215.387C160.257 215.312 160.423 215.202 160.562 215.062C160.702 214.923 160.812 214.757 160.887 214.575C160.963 214.393 161.001 214.197 161 214V142C161 140.409 160.368 138.883 159.243 137.757C158.117 136.632 156.591 136 155 136H143Z" fill="#F4EBFF" fill-opacity="0.01"/>
</g>
<path d="M143 136C141.409 136 139.883 136.632 138.757 137.757C137.632 138.883 137 140.409 137 142V214C136.999 214.197 137.037 214.393 137.113 214.575C137.188 214.757 137.298 214.923 137.438 215.062C137.577 215.202 137.743 215.312 137.925 215.387C138.107 215.463 138.303 215.501 138.5 215.5H159.5C159.697 215.501 159.893 215.463 160.075 215.387C160.257 215.312 160.423 215.202 160.562 215.062C160.702 214.923 160.812 214.757 160.887 214.575C160.963 214.393 161.001 214.197 161 214V142C161 140.409 160.368 138.883 159.243 137.757C158.117 136.632 156.591 136 155 136H143Z" fill="#F4EBFF"/>
<g filter="url(#filter4_di_5839_1679)">
<path d="M149 88C147.19 88.0003 145.403 88.4103 143.773 89.1991C142.144 89.988 140.714 91.1353 139.591 92.5551C138.468 93.9749 137.68 95.6305 137.288 97.3977C136.895 99.165 136.908 100.998 137.324 102.76C137.377 102.991 137.375 103.231 137.319 103.461C137.263 103.691 137.153 103.905 137 104.086L117.452 126.886C117.269 127.098 117.031 127.254 116.764 127.339C116.497 127.424 116.212 127.433 115.94 127.366C114.98 127.119 113.992 126.996 113 127C111.419 127.002 109.854 127.316 108.395 127.925C106.936 128.533 105.612 129.424 104.498 130.546C104.302 130.745 104.054 130.884 103.782 130.947C103.51 131.011 103.226 130.997 102.962 130.906L89.894 126.556C89.6313 126.468 89.3977 126.31 89.2189 126.098C89.0401 125.886 88.9229 125.63 88.88 125.356C88.4525 122.355 86.9049 119.626 84.5481 117.719C82.1914 115.812 79.2002 114.868 76.1757 115.076C73.1513 115.285 70.3177 116.63 68.2445 118.842C66.1713 121.054 65.0122 123.968 65 127C64.9992 127.938 65.11 128.872 65.33 129.784C65.3942 130.056 65.381 130.341 65.2919 130.606C65.2028 130.871 65.0415 131.106 64.826 131.284L47.426 145.804C47.2094 145.981 46.9482 146.096 46.6711 146.135C46.3939 146.174 46.1113 146.136 45.854 146.026C43.4885 144.98 40.8481 144.726 38.3265 145.302C35.8049 145.878 33.537 147.254 31.8608 149.224C30.1845 151.194 29.1897 153.653 29.0245 156.234C28.8593 158.815 29.5326 161.381 30.9441 163.549C32.3556 165.716 34.4296 167.37 36.8572 168.263C39.2848 169.156 41.9359 169.24 44.4156 168.504C46.8952 167.768 49.0706 166.25 50.6175 164.177C52.1644 162.104 53.0001 159.587 53 157C52.9994 156.065 52.8907 155.132 52.676 154.222C52.6112 153.95 52.6234 153.666 52.7114 153.401C52.7994 153.136 52.9596 152.901 53.174 152.722L70.574 138.202C70.7884 138.023 71.0487 137.907 71.3254 137.868C71.6021 137.829 71.8842 137.868 72.14 137.98C74.3591 138.956 76.8218 139.237 79.2037 138.786C81.5857 138.335 83.7753 137.174 85.484 135.454C85.6819 135.256 85.9311 135.118 86.2036 135.054C86.4761 134.99 86.761 135.004 87.026 135.094L100.088 139.438C100.349 139.527 100.581 139.686 100.759 139.898C100.936 140.109 101.053 140.365 101.096 140.638C101.481 143.677 103.014 146.453 105.38 148.398C107.745 150.343 110.765 151.31 113.821 151.101C116.877 150.891 119.737 149.521 121.815 147.272C123.893 145.022 125.033 142.063 125 139C125.002 137.389 124.675 135.795 124.04 134.314C123.931 134.056 123.897 133.773 123.94 133.496C123.984 133.219 124.103 132.96 124.286 132.748L142.55 111.436C142.758 111.194 143.037 111.024 143.348 110.952C143.659 110.88 143.985 110.909 144.278 111.034C145.915 111.734 147.686 112.06 149.465 111.991C151.243 111.921 152.984 111.457 154.561 110.631C156.138 109.806 157.511 108.64 158.582 107.218C159.652 105.796 160.393 104.154 160.751 102.41C161.108 100.666 161.073 98.865 160.648 97.1365C160.224 95.4081 159.42 93.7957 158.295 92.4164C157.17 91.037 155.753 89.9251 154.145 89.1612C152.537 88.3974 150.78 88.0007 149 88Z" fill="#6000D5" fill-opacity="0.01"/>
</g>
<path d="M149 88C147.19 88.0003 145.403 88.4103 143.773 89.1991C142.144 89.988 140.714 91.1353 139.591 92.5551C138.468 93.9749 137.68 95.6305 137.288 97.3977C136.895 99.165 136.908 100.998 137.324 102.76C137.377 102.991 137.375 103.231 137.319 103.461C137.263 103.691 137.153 103.905 137 104.086L117.452 126.886C117.269 127.098 117.031 127.254 116.764 127.339C116.497 127.424 116.212 127.433 115.94 127.366C114.98 127.119 113.992 126.996 113 127C111.419 127.002 109.854 127.316 108.395 127.925C106.936 128.533 105.612 129.424 104.498 130.546C104.302 130.745 104.054 130.884 103.782 130.947C103.51 131.011 103.226 130.997 102.962 130.906L89.894 126.556C89.6313 126.468 89.3977 126.31 89.2189 126.098C89.0401 125.886 88.9229 125.63 88.88 125.356C88.4525 122.355 86.9049 119.626 84.5481 117.719C82.1914 115.812 79.2002 114.868 76.1757 115.076C73.1513 115.285 70.3177 116.63 68.2445 118.842C66.1713 121.054 65.0122 123.968 65 127C64.9992 127.938 65.11 128.872 65.33 129.784C65.3942 130.056 65.381 130.341 65.2919 130.606C65.2028 130.871 65.0415 131.106 64.826 131.284L47.426 145.804C47.2094 145.981 46.9482 146.096 46.6711 146.135C46.3939 146.174 46.1113 146.136 45.854 146.026C43.4885 144.98 40.8481 144.726 38.3265 145.302C35.8049 145.878 33.537 147.254 31.8608 149.224C30.1845 151.194 29.1897 153.653 29.0245 156.234C28.8593 158.815 29.5326 161.381 30.9441 163.549C32.3556 165.716 34.4296 167.37 36.8572 168.263C39.2848 169.156 41.9359 169.24 44.4156 168.504C46.8952 167.768 49.0706 166.25 50.6175 164.177C52.1644 162.104 53.0001 159.587 53 157C52.9994 156.065 52.8907 155.132 52.676 154.222C52.6112 153.95 52.6234 153.666 52.7114 153.401C52.7994 153.136 52.9596 152.901 53.174 152.722L70.574 138.202C70.7884 138.023 71.0487 137.907 71.3254 137.868C71.6021 137.829 71.8842 137.868 72.14 137.98C74.3591 138.956 76.8218 139.237 79.2037 138.786C81.5857 138.335 83.7753 137.174 85.484 135.454C85.6819 135.256 85.9311 135.118 86.2036 135.054C86.4761 134.99 86.761 135.004 87.026 135.094L100.088 139.438C100.349 139.527 100.581 139.686 100.759 139.898C100.936 140.109 101.053 140.365 101.096 140.638C101.481 143.677 103.014 146.453 105.38 148.398C107.745 150.343 110.765 151.31 113.821 151.101C116.877 150.891 119.737 149.521 121.815 147.272C123.893 145.022 125.033 142.063 125 139C125.002 137.389 124.675 135.795 124.04 134.314C123.931 134.056 123.897 133.773 123.94 133.496C123.984 133.219 124.103 132.96 124.286 132.748L142.55 111.436C142.758 111.194 143.037 111.024 143.348 110.952C143.659 110.88 143.985 110.909 144.278 111.034C145.915 111.734 147.686 112.06 149.465 111.991C151.243 111.921 152.984 111.457 154.561 110.631C156.138 109.806 157.511 108.64 158.582 107.218C159.652 105.796 160.393 104.154 160.751 102.41C161.108 100.666 161.073 98.865 160.648 97.1365C160.224 95.4081 159.42 93.7957 158.295 92.4164C157.17 91.037 155.753 89.9251 154.145 89.1612C152.537 88.3974 150.78 88.0007 149 88Z" fill="#6000D5"/>
<g filter="url(#filter5_di_5839_1679)">
<path d="M29 235H161C162.591 235 164.117 234.368 165.243 233.243C166.368 232.117 167 230.591 167 229C167 227.409 166.368 225.883 165.243 224.757C164.117 223.632 162.591 223 161 223H29C27.4087 223 25.8826 223.632 24.7574 224.757C23.6321 225.883 23 227.409 23 229C23 230.591 23.6321 232.117 24.7574 233.243C25.8826 234.368 27.4087 235 29 235Z" fill="#6000D5" fill-opacity="0.01"/>
</g>
<path d="M29 235H161C162.591 235 164.117 234.368 165.243 233.243C166.368 232.117 167 230.591 167 229C167 227.409 166.368 225.883 165.243 224.757C164.117 223.632 162.591 223 161 223H29C27.4087 223 25.8826 223.632 24.7574 224.757C23.6321 225.883 23 227.409 23 229C23 230.591 23.6321 232.117 24.7574 233.243C25.8826 234.368 27.4087 235 29 235Z" fill="#6000D5"/>
<defs>
<filter id="filter0_di_5839_1679" x="21" y="190" width="40" height="37.5" filterUnits="userSpaceOnUse" color-interpolation-filters="sRGB">
<feFlood flood-opacity="0" result="BackgroundImageFix"/>
<feColorMatrix in="SourceAlpha" type="matrix" values="0 0 0 0 0 0 0 0 0 0 0 0 0 0 0 0 0 0 127 0" result="hardAlpha"/>
<feOffset dy="4"/>
<feGaussianBlur stdDeviation="4"/>
<feColorMatrix type="matrix" values="0 0 0 0 0.103524 0 0 0 0 0.142166 0 0 0 0 0.279167 0 0 0 0.21 0"/>
<feBlend mode="normal" in2="BackgroundImageFix" result="effect1_dropShadow_5839_1679"/>
<feBlend mode="normal" in="SourceGraphic" in2="effect1_dropShadow_5839_1679" result="shape"/>
<feColorMatrix in="SourceAlpha" type="matrix" values="0 0 0 0 0 0 0 0 0 0 0 0 0 0 0 0 0 0 127 0" result="hardAlpha"/>
<feOffset dy="-6"/>
<feGaussianBlur stdDeviation="5.5"/>
<feComposite in2="hardAlpha" operator="arithmetic" k2="-1" k3="1"/>
<feColorMatrix type="matrix" values="0 0 0 0 0.0327604 0 0 0 0 0.0594698 0 0 0 0 0.154167 0 0 0 0.21 0"/>
<feBlend mode="normal" in2="shape" result="effect2_innerShadow_5839_1679"/>
</filter>
<filter id="filter1_di_5839_1679" x="57" y="160" width="40" height="67.5" filterUnits="userSpaceOnUse" color-interpolation-filters="sRGB">
<feFlood flood-opacity="0" result="BackgroundImageFix"/>
<feColorMatrix in="SourceAlpha" type="matrix" values="0 0 0 0 0 0 0 0 0 0 0 0 0 0 0 0 0 0 127 0" result="hardAlpha"/>
<feOffset dy="4"/>
<feGaussianBlur stdDeviation="4"/>
<feColorMatrix type="matrix" values="0 0 0 0 0.103524 0 0 0 0 0.142166 0 0 0 0 0.279167 0 0 0 0.21 0"/>
<feBlend mode="normal" in2="BackgroundImageFix" result="effect1_dropShadow_5839_1679"/>
<feBlend mode="normal" in="SourceGraphic" in2="effect1_dropShadow_5839_1679" result="shape"/>
<feColorMatrix in="SourceAlpha" type="matrix" values="0 0 0 0 0 0 0 0 0 0 0 0 0 0 0 0 0 0 127 0" result="hardAlpha"/>
<feOffset dy="-6"/>
<feGaussianBlur stdDeviation="5.5"/>
<feComposite in2="hardAlpha" operator="arithmetic" k2="-1" k3="1"/>
<feColorMatrix type="matrix" values="0 0 0 0 0.0327604 0 0 0 0 0.0594698 0 0 0 0 0.154167 0 0 0 0.21 0"/>
<feBlend mode="normal" in2="shape" result="effect2_innerShadow_5839_1679"/>
</filter>
<filter id="filter2_di_5839_1679" x="93" y="172" width="40" height="55.5" filterUnits="userSpaceOnUse" color-interpolation-filters="sRGB">
<feFlood flood-opacity="0" result="BackgroundImageFix"/>
<feColorMatrix in="SourceAlpha" type="matrix" values="0 0 0 0 0 0 0 0 0 0 0 0 0 0 0 0 0 0 127 0" result="hardAlpha"/>
<feOffset dy="4"/>
<feGaussianBlur stdDeviation="4"/>
<feColorMatrix type="matrix" values="0 0 0 0 0.103524 0 0 0 0 0.142166 0 0 0 0 0.279167 0 0 0 0.21 0"/>
<feBlend mode="normal" in2="BackgroundImageFix" result="effect1_dropShadow_5839_1679"/>
<feBlend mode="normal" in="SourceGraphic" in2="effect1_dropShadow_5839_1679" result="shape"/>
<feColorMatrix in="SourceAlpha" type="matrix" values="0 0 0 0 0 0 0 0 0 0 0 0 0 0 0 0 0 0 127 0" result="hardAlpha"/>
<feOffset dy="-6"/>
<feGaussianBlur stdDeviation="5.5"/>
<feComposite in2="hardAlpha" operator="arithmetic" k2="-1" k3="1"/>
<feColorMatrix type="matrix" values="0 0 0 0 0.0327604 0 0 0 0 0.0594698 0 0 0 0 0.154167 0 0 0 0.21 0"/>
<feBlend mode="normal" in2="shape" result="effect2_innerShadow_5839_1679"/>
</filter>
<filter id="filter3_di_5839_1679" x="129" y="130" width="40" height="97.5" filterUnits="userSpaceOnUse" color-interpolation-filters="sRGB">
<feFlood flood-opacity="0" result="BackgroundImageFix"/>
<feColorMatrix in="SourceAlpha" type="matrix" values="0 0 0 0 0 0 0 0 0 0 0 0 0 0 0 0 0 0 127 0" result="hardAlpha"/>
<feOffset dy="4"/>
<feGaussianBlur stdDeviation="4"/>
<feColorMatrix type="matrix" values="0 0 0 0 0.103524 0 0 0 0 0.142166 0 0 0 0 0.279167 0 0 0 0.21 0"/>
<feBlend mode="normal" in2="BackgroundImageFix" result="effect1_dropShadow_5839_1679"/>
<feBlend mode="normal" in="SourceGraphic" in2="effect1_dropShadow_5839_1679" result="shape"/>
<feColorMatrix in="SourceAlpha" type="matrix" values="0 0 0 0 0 0 0 0 0 0 0 0 0 0 0 0 0 0 127 0" result="hardAlpha"/>
<feOffset dy="-6"/>
<feGaussianBlur stdDeviation="5.5"/>
<feComposite in2="hardAlpha" operator="arithmetic" k2="-1" k3="1"/>
<feColorMatrix type="matrix" values="0 0 0 0 0.0327604 0 0 0 0 0.0594698 0 0 0 0 0.154167 0 0 0 0.21 0"/>
<feBlend mode="normal" in2="shape" result="effect2_innerShadow_5839_1679"/>
</filter>
<filter id="filter4_di_5839_1679" x="13" y="76" width="163.994" height="113" filterUnits="userSpaceOnUse" color-interpolation-filters="sRGB">
<feFlood flood-opacity="0" result="BackgroundImageFix"/>
<feColorMatrix in="SourceAlpha" type="matrix" values="0 0 0 0 0 0 0 0 0 0 0 0 0 0 0 0 0 0 127 0" result="hardAlpha"/>
<feOffset dy="4"/>
<feGaussianBlur stdDeviation="8"/>
<feColorMatrix type="matrix" values="0 0 0 0 0.191667 0 0 0 0 0.418 0 0 0 0 1 0 0 0 0.37 0"/>
<feBlend mode="normal" in2="BackgroundImageFix" result="effect1_dropShadow_5839_1679"/>
<feBlend mode="normal" in="SourceGraphic" in2="effect1_dropShadow_5839_1679" result="shape"/>
<feColorMatrix in="SourceAlpha" type="matrix" values="0 0 0 0 0 0 0 0 0 0 0 0 0 0 0 0 0 0 127 0" result="hardAlpha"/>
<feOffset dy="-4"/>
<feGaussianBlur stdDeviation="6"/>
<feComposite in2="hardAlpha" operator="arithmetic" k2="-1" k3="1"/>
<feColorMatrix type="matrix" values="0 0 0 0 0.115278 0 0 0 0 0.166 0 0 0 0 0.345833 0 0 0 0.14 0"/>
<feBlend mode="normal" in2="shape" result="effect2_innerShadow_5839_1679"/>
</filter>
<filter id="filter5_di_5839_1679" x="7" y="211" width="176" height="44" filterUnits="userSpaceOnUse" color-interpolation-filters="sRGB">
<feFlood flood-opacity="0" result="BackgroundImageFix"/>
<feColorMatrix in="SourceAlpha" type="matrix" values="0 0 0 0 0 0 0 0 0 0 0 0 0 0 0 0 0 0 127 0" result="hardAlpha"/>
<feOffset dy="4"/>
<feGaussianBlur stdDeviation="8"/>
<feColorMatrix type="matrix" values="0 0 0 0 0.191667 0 0 0 0 0.418 0 0 0 0 1 0 0 0 0.37 0"/>
<feBlend mode="normal" in2="BackgroundImageFix" result="effect1_dropShadow_5839_1679"/>
<feBlend mode="normal" in="SourceGraphic" in2="effect1_dropShadow_5839_1679" result="shape"/>
<feColorMatrix in="SourceAlpha" type="matrix" values="0 0 0 0 0 0 0 0 0 0 0 0 0 0 0 0 0 0 127 0" result="hardAlpha"/>
<feOffset dy="-4"/>
<feGaussianBlur stdDeviation="6"/>
<feComposite in2="hardAlpha" operator="arithmetic" k2="-1" k3="1"/>
<feColorMatrix type="matrix" values="0 0 0 0 0.115278 0 0 0 0 0.166 0 0 0 0 0.345833 0 0 0 0.14 0"/>
<feBlend mode="normal" in2="shape" result="effect2_innerShadow_5839_1679"/>
</filter>
<clipPath id="clip0_5839_1679">
<path d="M187 102H360V234C360 251.673 345.673 266 328 266H187V102Z" fill="white"/>
</clipPath>
</defs>
</svg>
