<svg width="373" height="268" viewBox="0 0 373 268" fill="none" xmlns="http://www.w3.org/2000/svg">
<path opacity="0.06" d="M47.9806 16.1089L26.8558 41.2846C19.7557 49.7461 20.8594 62.3612 29.3209 69.4612L54.4966 90.5861C62.9581 97.6862 75.5732 96.5825 82.6732 88.121L103.798 62.9453C110.898 54.4838 109.794 41.8687 101.333 34.7687L76.1573 13.6438C67.6958 6.54374 55.0807 7.64742 47.9806 16.1089Z" fill="#00C424"/>
<g clip-path="url(#clip0_5839_1678)">
<path opacity="0.09" d="M238.529 73.7255C230.645 60.069 213.182 55.39 199.526 63.2745C185.87 71.1591 181.191 88.6215 189.075 102.278C196.96 115.934 214.422 120.613 228.079 112.729C241.735 104.844 246.414 87.3819 238.529 73.7255Z" fill="#00C424"/>
</g>
<g clip-path="url(#clip1_5839_1678)">
<path opacity="0.06" d="M49.4581 303.19C40.5642 299.942 32.7103 294.341 26.7266 286.983C20.743 279.623 16.8521 270.778 15.4654 261.383C14.0785 251.987 15.2474 242.39 18.8482 233.606C22.4491 224.822 28.3482 217.178 35.9218 211.482C43.4955 205.786 52.4619 202.249 61.8737 201.245C71.2855 200.242 80.7928 201.809 89.3898 205.782C97.9867 209.754 105.355 215.984 110.714 223.813C116.073 231.642 119.225 240.778 119.836 250.256L99.3609 251.586C98.9887 245.81 97.0677 240.243 93.8023 235.473C90.5364 230.702 86.047 226.906 80.808 224.485C75.5695 222.065 69.7762 221.11 64.0415 221.721C58.3063 222.332 52.8423 224.488 48.2275 227.959C43.6125 231.43 40.0179 236.088 37.8237 241.44C35.6295 246.792 34.9173 252.641 35.7624 258.366C36.6074 264.091 38.9783 269.48 42.6244 273.965C46.2705 278.449 51.0563 281.861 56.4759 283.841L49.4581 303.19Z" fill="#00C424"/>
</g>
<g clip-path="url(#clip2_5839_1678)">
<path opacity="0.08" d="M334 362.5C402.759 362.5 458.5 306.759 458.5 238C458.5 169.241 402.759 113.5 334 113.5C265.241 113.5 209.5 169.241 209.5 238C209.5 306.759 265.241 362.5 334 362.5Z" fill="#00C424" stroke="#6FFF89" stroke-width="19"/>
</g>
<g filter="url(#filter0_di_5839_1678)">
<path d="M131.254 202.259C130.657 200.787 129.501 199.612 128.039 198.991C126.577 198.37 124.928 198.354 123.454 198.947C113.345 202.994 102.065 202.994 91.9556 198.947C91.2231 198.637 90.4363 198.476 89.6409 198.473C88.8455 198.47 88.0574 198.625 87.3224 198.929C86.5875 199.233 85.9203 199.68 85.3598 200.245C84.7993 200.809 84.3567 201.479 84.0576 202.216C83.7584 202.953 83.6089 203.742 83.6175 204.538C83.6262 205.333 83.793 206.119 84.1081 206.849C84.4232 207.58 84.8803 208.24 85.453 208.792C86.0257 209.344 86.7024 209.777 87.4438 210.065C100.44 215.301 114.958 215.301 127.954 210.065C129.426 209.466 130.599 208.307 131.218 206.844C131.836 205.381 131.849 203.732 131.254 202.259Z" fill="#EFFFF2" fill-opacity="0.01"/>
</g>
<path d="M131.254 202.259C130.657 200.787 129.501 199.612 128.039 198.991C126.577 198.37 124.928 198.354 123.454 198.947C113.345 202.994 102.065 202.994 91.9556 198.947C91.2231 198.637 90.4363 198.476 89.6409 198.473C88.8455 198.47 88.0574 198.625 87.3224 198.929C86.5875 199.233 85.9203 199.68 85.3598 200.245C84.7993 200.809 84.3567 201.479 84.0576 202.216C83.7584 202.953 83.6089 203.742 83.6175 204.538C83.6262 205.333 83.793 206.119 84.1081 206.849C84.4232 207.58 84.8803 208.24 85.453 208.792C86.0257 209.344 86.7024 209.777 87.4438 210.065C100.44 215.301 114.958 215.301 127.954 210.065C129.426 209.466 130.599 208.307 131.218 206.844C131.836 205.381 131.849 203.732 131.254 202.259Z" fill="#EFFFF2"/>
<g filter="url(#filter1_di_5839_1678)">
<path d="M131.326 125.276C136.986 129.129 141.618 134.307 144.819 140.36C148.02 146.412 149.692 153.156 149.691 160.003C149.689 161.765 149.581 163.527 149.367 165.276C149.257 166.065 149.305 166.868 149.508 167.639C149.712 168.409 150.067 169.131 150.552 169.763C151.038 170.394 151.644 170.923 152.336 171.317C153.028 171.712 153.792 171.965 154.583 172.062C155.374 172.158 156.176 172.096 156.942 171.879C157.709 171.662 158.425 171.295 159.048 170.798C159.671 170.302 160.189 169.686 160.572 168.987C160.954 168.289 161.194 167.521 161.276 166.728C161.551 164.497 161.689 162.251 161.69 160.003C161.692 151.202 159.542 142.535 155.428 134.755C151.314 126.975 145.361 120.318 138.087 115.364C136.773 114.494 135.168 114.176 133.621 114.479C132.073 114.783 130.708 115.683 129.819 116.986C128.93 118.288 128.59 119.888 128.872 121.44C129.154 122.991 130.036 124.369 131.326 125.276Z" fill="#EFFFF2" fill-opacity="0.01"/>
</g>
<path d="M131.326 125.276C136.986 129.129 141.618 134.307 144.819 140.36C148.02 146.412 149.692 153.156 149.691 160.003C149.689 161.765 149.581 163.527 149.367 165.276C149.257 166.065 149.305 166.868 149.508 167.639C149.712 168.409 150.067 169.131 150.552 169.763C151.038 170.394 151.644 170.923 152.336 171.317C153.028 171.712 153.792 171.965 154.583 172.062C155.374 172.158 156.176 172.096 156.942 171.879C157.709 171.662 158.425 171.295 159.048 170.798C159.671 170.302 160.189 169.686 160.572 168.987C160.954 168.289 161.194 167.521 161.276 166.728C161.551 164.497 161.689 162.251 161.69 160.003C161.692 151.202 159.542 142.535 155.428 134.755C151.314 126.975 145.361 120.318 138.087 115.364C136.773 114.494 135.168 114.176 133.621 114.479C132.073 114.783 130.708 115.683 129.819 116.986C128.93 118.288 128.59 119.888 128.872 121.44C129.154 122.991 130.036 124.369 131.326 125.276Z" fill="#EFFFF2"/>
<g filter="url(#filter2_di_5839_1678)">
<path d="M60.061 172.002C60.9104 172.002 61.7501 171.822 62.5247 171.474C63.2993 171.125 63.9911 170.616 64.5542 169.981C65.1174 169.345 65.5392 168.597 65.7917 167.786C66.0442 166.975 66.1216 166.119 66.0188 165.276C65.8045 163.527 65.6963 161.765 65.6948 160.003C65.6934 153.156 67.366 146.412 70.5669 140.36C73.7679 134.307 78.4001 129.129 84.06 125.276C85.3502 124.369 86.2316 122.991 86.5136 121.44C86.7956 119.888 86.4555 118.288 85.5668 116.986C84.6782 115.683 83.3125 114.783 81.7651 114.479C80.2177 114.176 78.6131 114.494 77.2983 115.364C70.0244 120.318 64.0714 126.975 59.9577 134.755C55.844 142.535 53.6941 151.202 53.6953 160.003C53.6964 162.251 53.8347 164.497 54.1093 166.728C54.2865 168.182 54.9896 169.521 56.086 170.493C57.1823 171.464 58.5962 172.001 60.061 172.002Z" fill="#EFFFF2" fill-opacity="0.01"/>
</g>
<path d="M60.061 172.002C60.9104 172.002 61.7501 171.822 62.5247 171.474C63.2993 171.125 63.9911 170.616 64.5542 169.981C65.1174 169.345 65.5392 168.597 65.7917 167.786C66.0442 166.975 66.1216 166.119 66.0188 165.276C65.8045 163.527 65.6963 161.765 65.6948 160.003C65.6934 153.156 67.366 146.412 70.5669 140.36C73.7679 134.307 78.4001 129.129 84.06 125.276C85.3502 124.369 86.2316 122.991 86.5136 121.44C86.7956 119.888 86.4555 118.288 85.5668 116.986C84.6782 115.683 83.3125 114.783 81.7651 114.479C80.2177 114.176 78.6131 114.494 77.2983 115.364C70.0244 120.318 64.0714 126.975 59.9577 134.755C55.844 142.535 53.6941 151.202 53.6953 160.003C53.6964 162.251 53.8347 164.497 54.1093 166.728C54.2865 168.182 54.9896 169.521 56.086 170.493C57.1823 171.464 58.5962 172.001 60.061 172.002Z" fill="#EFFFF2"/>
<g filter="url(#filter3_di_5839_1678)">
<path d="M129.737 148.003C129.959 148.004 130.178 147.954 130.379 147.859C130.58 147.763 130.757 147.624 130.897 147.452C131.038 147.28 131.138 147.078 131.19 146.862C131.242 146.646 131.246 146.421 131.201 146.203C130.014 140.771 127.006 135.907 122.675 132.42C118.344 128.933 112.951 127.031 107.39 127.031C101.83 127.031 96.4368 128.933 92.1058 132.42C87.7749 135.907 84.7667 140.771 83.5805 146.203C83.535 146.421 83.5386 146.646 83.591 146.862C83.6435 147.078 83.7435 147.28 83.8838 147.452C84.024 147.624 84.201 147.763 84.4018 147.859C84.6026 147.954 84.8222 148.004 85.0444 148.003H129.737Z" fill="#00C424" fill-opacity="0.01"/>
</g>
<path d="M129.737 148.003C129.959 148.004 130.178 147.954 130.379 147.859C130.58 147.763 130.757 147.624 130.897 147.452C131.038 147.28 131.138 147.078 131.19 146.862C131.242 146.646 131.246 146.421 131.201 146.203C130.014 140.771 127.006 135.907 122.675 132.42C118.344 128.933 112.951 127.031 107.39 127.031C101.83 127.031 96.4368 128.933 92.1058 132.42C87.7749 135.907 84.7667 140.771 83.5805 146.203C83.535 146.421 83.5386 146.646 83.591 146.862C83.6435 147.078 83.7435 147.28 83.8838 147.452C84.024 147.624 84.201 147.763 84.4018 147.859C84.6026 147.954 84.8222 148.004 85.0444 148.003H129.737Z" fill="#00C424"/>
<g filter="url(#filter4_di_5839_1678)">
<path d="M107.693 120.999C115.977 120.999 122.692 114.283 122.692 105.999C122.692 97.7154 115.977 91 107.693 91C99.4088 91 92.6934 97.7154 92.6934 105.999C92.6934 114.283 99.4088 120.999 107.693 120.999Z" fill="#00C424" fill-opacity="0.01"/>
</g>
<path d="M107.693 120.999C115.977 120.999 122.692 114.283 122.692 105.999C122.692 97.7154 115.977 91 107.693 91C99.4088 91 92.6934 97.7154 92.6934 105.999C92.6934 114.283 99.4088 120.999 107.693 120.999Z" fill="#00C424"/>
<g filter="url(#filter5_di_5839_1678)">
<path d="M155.546 214C149.983 214.008 144.59 215.916 140.26 219.408C135.929 222.899 132.921 227.765 131.733 233.199C131.687 233.417 131.691 233.642 131.743 233.858C131.796 234.074 131.896 234.275 132.036 234.448C132.176 234.62 132.353 234.759 132.554 234.855C132.755 234.95 132.974 234.999 133.197 234.999H177.889C178.111 234.999 178.331 234.95 178.532 234.855C178.732 234.759 178.909 234.62 179.05 234.448C179.19 234.275 179.29 234.074 179.342 233.858C179.395 233.642 179.398 233.417 179.353 233.199C178.165 227.766 175.158 222.901 170.828 219.41C166.499 215.918 161.108 214.01 155.546 214Z" fill="#00C424" fill-opacity="0.01"/>
</g>
<path d="M155.546 214C149.983 214.008 144.59 215.916 140.26 219.408C135.929 222.899 132.921 227.765 131.733 233.199C131.687 233.417 131.691 233.642 131.743 233.858C131.796 234.074 131.896 234.275 132.036 234.448C132.176 234.62 132.353 234.759 132.554 234.855C132.755 234.95 132.974 234.999 133.197 234.999H177.889C178.111 234.999 178.331 234.95 178.532 234.855C178.732 234.759 178.909 234.62 179.05 234.448C179.19 234.275 179.29 234.074 179.342 233.858C179.395 233.642 179.398 233.417 179.353 233.199C178.165 227.766 175.158 222.901 170.828 219.41C166.499 215.918 161.108 214.01 155.546 214Z" fill="#00C424"/>
<g filter="url(#filter6_di_5839_1678)">
<path d="M155.847 207.995C164.131 207.995 170.846 201.279 170.846 192.995C170.846 184.712 164.131 177.996 155.847 177.996C147.563 177.996 140.848 184.712 140.848 192.995C140.848 201.279 147.563 207.995 155.847 207.995Z" fill="#00C424" fill-opacity="0.01"/>
</g>
<path d="M155.847 207.995C164.131 207.995 170.846 201.279 170.846 192.995C170.846 184.712 164.131 177.996 155.847 177.996C147.563 177.996 140.848 184.712 140.848 192.995C140.848 201.279 147.563 207.995 155.847 207.995Z" fill="#00C424"/>
<g filter="url(#filter7_di_5839_1678)">
<path d="M59.8447 214C54.282 214.008 48.889 215.916 44.5585 219.408C40.2279 222.899 37.2197 227.765 36.0317 233.199C35.9861 233.417 35.9897 233.642 36.0422 233.858C36.0947 234.074 36.1947 234.275 36.3349 234.448C36.4752 234.62 36.6522 234.759 36.853 234.855C37.0538 234.95 37.2733 234.999 37.4956 234.999H82.1877C82.41 234.999 82.6296 234.95 82.8304 234.855C83.0312 234.759 83.2082 234.62 83.3484 234.448C83.4887 234.275 83.5887 234.074 83.6412 233.858C83.6936 233.642 83.6972 233.417 83.6517 233.199C82.4639 227.766 79.4565 222.901 75.1272 219.41C70.798 215.918 65.4063 214.01 59.8447 214Z" fill="#00C424" fill-opacity="0.01"/>
</g>
<path d="M59.8447 214C54.282 214.008 48.889 215.916 44.5585 219.408C40.2279 222.899 37.2197 227.765 36.0317 233.199C35.9861 233.417 35.9897 233.642 36.0422 233.858C36.0947 234.074 36.1947 234.275 36.3349 234.448C36.4752 234.62 36.6522 234.759 36.853 234.855C37.0538 234.95 37.2733 234.999 37.4956 234.999H82.1877C82.41 234.999 82.6296 234.95 82.8304 234.855C83.0312 234.759 83.2082 234.62 83.3484 234.448C83.4887 234.275 83.5887 234.074 83.6412 233.858C83.6936 233.642 83.6972 233.417 83.6517 233.199C82.4639 227.766 79.4565 222.901 75.1272 219.41C70.798 215.918 65.4063 214.01 59.8447 214Z" fill="#00C424"/>
<g filter="url(#filter8_di_5839_1678)">
<path d="M60.1439 207.995C68.4278 207.995 75.1433 201.279 75.1433 192.995C75.1433 184.712 68.4278 177.996 60.1439 177.996C51.86 177.996 45.1445 184.712 45.1445 192.995C45.1445 201.279 51.86 207.995 60.1439 207.995Z" fill="#00C424" fill-opacity="0.01"/>
</g>
<path d="M60.1439 207.995C68.4278 207.995 75.1433 201.279 75.1433 192.995C75.1433 184.712 68.4278 177.996 60.1439 177.996C51.86 177.996 45.1445 184.712 45.1445 192.995C45.1445 201.279 51.86 207.995 60.1439 207.995Z" fill="#00C424"/>
<defs>
<filter id="filter0_di_5839_1678" x="75.6172" y="192.473" width="64.0742" height="33.519" filterUnits="userSpaceOnUse" color-interpolation-filters="sRGB">
<feFlood flood-opacity="0" result="BackgroundImageFix"/>
<feColorMatrix in="SourceAlpha" type="matrix" values="0 0 0 0 0 0 0 0 0 0 0 0 0 0 0 0 0 0 127 0" result="hardAlpha"/>
<feOffset dy="4"/>
<feGaussianBlur stdDeviation="4"/>
<feColorMatrix type="matrix" values="0 0 0 0 0.103524 0 0 0 0 0.142166 0 0 0 0 0.279167 0 0 0 0.21 0"/>
<feBlend mode="normal" in2="BackgroundImageFix" result="effect1_dropShadow_5839_1678"/>
<feBlend mode="normal" in="SourceGraphic" in2="effect1_dropShadow_5839_1678" result="shape"/>
<feColorMatrix in="SourceAlpha" type="matrix" values="0 0 0 0 0 0 0 0 0 0 0 0 0 0 0 0 0 0 127 0" result="hardAlpha"/>
<feOffset dy="-6"/>
<feGaussianBlur stdDeviation="5.5"/>
<feComposite in2="hardAlpha" operator="arithmetic" k2="-1" k3="1"/>
<feColorMatrix type="matrix" values="0 0 0 0 0.0327604 0 0 0 0 0.0594698 0 0 0 0 0.154167 0 0 0 0.21 0"/>
<feBlend mode="normal" in2="shape" result="effect2_innerShadow_5839_1678"/>
</filter>
<filter id="filter1_di_5839_1678" x="120.775" y="108.367" width="48.9141" height="75.7385" filterUnits="userSpaceOnUse" color-interpolation-filters="sRGB">
<feFlood flood-opacity="0" result="BackgroundImageFix"/>
<feColorMatrix in="SourceAlpha" type="matrix" values="0 0 0 0 0 0 0 0 0 0 0 0 0 0 0 0 0 0 127 0" result="hardAlpha"/>
<feOffset dy="4"/>
<feGaussianBlur stdDeviation="4"/>
<feColorMatrix type="matrix" values="0 0 0 0 0.103524 0 0 0 0 0.142166 0 0 0 0 0.279167 0 0 0 0.21 0"/>
<feBlend mode="normal" in2="BackgroundImageFix" result="effect1_dropShadow_5839_1678"/>
<feBlend mode="normal" in="SourceGraphic" in2="effect1_dropShadow_5839_1678" result="shape"/>
<feColorMatrix in="SourceAlpha" type="matrix" values="0 0 0 0 0 0 0 0 0 0 0 0 0 0 0 0 0 0 127 0" result="hardAlpha"/>
<feOffset dy="-6"/>
<feGaussianBlur stdDeviation="5.5"/>
<feComposite in2="hardAlpha" operator="arithmetic" k2="-1" k3="1"/>
<feColorMatrix type="matrix" values="0 0 0 0 0.0327604 0 0 0 0 0.0594698 0 0 0 0 0.154167 0 0 0 0.21 0"/>
<feBlend mode="normal" in2="shape" result="effect2_innerShadow_5839_1678"/>
</filter>
<filter id="filter2_di_5839_1678" x="45.6953" y="108.367" width="48.916" height="75.6348" filterUnits="userSpaceOnUse" color-interpolation-filters="sRGB">
<feFlood flood-opacity="0" result="BackgroundImageFix"/>
<feColorMatrix in="SourceAlpha" type="matrix" values="0 0 0 0 0 0 0 0 0 0 0 0 0 0 0 0 0 0 127 0" result="hardAlpha"/>
<feOffset dy="4"/>
<feGaussianBlur stdDeviation="4"/>
<feColorMatrix type="matrix" values="0 0 0 0 0.103524 0 0 0 0 0.142166 0 0 0 0 0.279167 0 0 0 0.21 0"/>
<feBlend mode="normal" in2="BackgroundImageFix" result="effect1_dropShadow_5839_1678"/>
<feBlend mode="normal" in="SourceGraphic" in2="effect1_dropShadow_5839_1678" result="shape"/>
<feColorMatrix in="SourceAlpha" type="matrix" values="0 0 0 0 0 0 0 0 0 0 0 0 0 0 0 0 0 0 127 0" result="hardAlpha"/>
<feOffset dy="-6"/>
<feGaussianBlur stdDeviation="5.5"/>
<feComposite in2="hardAlpha" operator="arithmetic" k2="-1" k3="1"/>
<feColorMatrix type="matrix" values="0 0 0 0 0.0327604 0 0 0 0 0.0594698 0 0 0 0 0.154167 0 0 0 0.21 0"/>
<feBlend mode="normal" in2="shape" result="effect2_innerShadow_5839_1678"/>
</filter>
<filter id="filter3_di_5839_1678" x="67.5488" y="115.031" width="79.6836" height="52.9722" filterUnits="userSpaceOnUse" color-interpolation-filters="sRGB">
<feFlood flood-opacity="0" result="BackgroundImageFix"/>
<feColorMatrix in="SourceAlpha" type="matrix" values="0 0 0 0 0 0 0 0 0 0 0 0 0 0 0 0 0 0 127 0" result="hardAlpha"/>
<feOffset dy="4"/>
<feGaussianBlur stdDeviation="8"/>
<feColorMatrix type="matrix" values="0 0 0 0 0.191667 0 0 0 0 0.418 0 0 0 0 1 0 0 0 0.37 0"/>
<feBlend mode="normal" in2="BackgroundImageFix" result="effect1_dropShadow_5839_1678"/>
<feBlend mode="normal" in="SourceGraphic" in2="effect1_dropShadow_5839_1678" result="shape"/>
<feColorMatrix in="SourceAlpha" type="matrix" values="0 0 0 0 0 0 0 0 0 0 0 0 0 0 0 0 0 0 127 0" result="hardAlpha"/>
<feOffset dy="-4"/>
<feGaussianBlur stdDeviation="6"/>
<feComposite in2="hardAlpha" operator="arithmetic" k2="-1" k3="1"/>
<feColorMatrix type="matrix" values="0 0 0 0 0.115278 0 0 0 0 0.166 0 0 0 0 0.345833 0 0 0 0.14 0"/>
<feBlend mode="normal" in2="shape" result="effect2_innerShadow_5839_1678"/>
</filter>
<filter id="filter4_di_5839_1678" x="76.6934" y="79" width="61.998" height="61.9988" filterUnits="userSpaceOnUse" color-interpolation-filters="sRGB">
<feFlood flood-opacity="0" result="BackgroundImageFix"/>
<feColorMatrix in="SourceAlpha" type="matrix" values="0 0 0 0 0 0 0 0 0 0 0 0 0 0 0 0 0 0 127 0" result="hardAlpha"/>
<feOffset dy="4"/>
<feGaussianBlur stdDeviation="8"/>
<feColorMatrix type="matrix" values="0 0 0 0 0.191667 0 0 0 0 0.418 0 0 0 0 1 0 0 0 0.37 0"/>
<feBlend mode="normal" in2="BackgroundImageFix" result="effect1_dropShadow_5839_1678"/>
<feBlend mode="normal" in="SourceGraphic" in2="effect1_dropShadow_5839_1678" result="shape"/>
<feColorMatrix in="SourceAlpha" type="matrix" values="0 0 0 0 0 0 0 0 0 0 0 0 0 0 0 0 0 0 127 0" result="hardAlpha"/>
<feOffset dy="-4"/>
<feGaussianBlur stdDeviation="6"/>
<feComposite in2="hardAlpha" operator="arithmetic" k2="-1" k3="1"/>
<feColorMatrix type="matrix" values="0 0 0 0 0.115278 0 0 0 0 0.166 0 0 0 0 0.345833 0 0 0 0.14 0"/>
<feBlend mode="normal" in2="shape" result="effect2_innerShadow_5839_1678"/>
</filter>
<filter id="filter5_di_5839_1678" x="115.701" y="202" width="79.6836" height="52.999" filterUnits="userSpaceOnUse" color-interpolation-filters="sRGB">
<feFlood flood-opacity="0" result="BackgroundImageFix"/>
<feColorMatrix in="SourceAlpha" type="matrix" values="0 0 0 0 0 0 0 0 0 0 0 0 0 0 0 0 0 0 127 0" result="hardAlpha"/>
<feOffset dy="4"/>
<feGaussianBlur stdDeviation="8"/>
<feColorMatrix type="matrix" values="0 0 0 0 0.191667 0 0 0 0 0.418 0 0 0 0 1 0 0 0 0.37 0"/>
<feBlend mode="normal" in2="BackgroundImageFix" result="effect1_dropShadow_5839_1678"/>
<feBlend mode="normal" in="SourceGraphic" in2="effect1_dropShadow_5839_1678" result="shape"/>
<feColorMatrix in="SourceAlpha" type="matrix" values="0 0 0 0 0 0 0 0 0 0 0 0 0 0 0 0 0 0 127 0" result="hardAlpha"/>
<feOffset dy="-4"/>
<feGaussianBlur stdDeviation="6"/>
<feComposite in2="hardAlpha" operator="arithmetic" k2="-1" k3="1"/>
<feColorMatrix type="matrix" values="0 0 0 0 0.115278 0 0 0 0 0.166 0 0 0 0 0.345833 0 0 0 0.14 0"/>
<feBlend mode="normal" in2="shape" result="effect2_innerShadow_5839_1678"/>
</filter>
<filter id="filter6_di_5839_1678" x="124.848" y="165.996" width="61.998" height="61.9988" filterUnits="userSpaceOnUse" color-interpolation-filters="sRGB">
<feFlood flood-opacity="0" result="BackgroundImageFix"/>
<feColorMatrix in="SourceAlpha" type="matrix" values="0 0 0 0 0 0 0 0 0 0 0 0 0 0 0 0 0 0 127 0" result="hardAlpha"/>
<feOffset dy="4"/>
<feGaussianBlur stdDeviation="8"/>
<feColorMatrix type="matrix" values="0 0 0 0 0.191667 0 0 0 0 0.418 0 0 0 0 1 0 0 0 0.37 0"/>
<feBlend mode="normal" in2="BackgroundImageFix" result="effect1_dropShadow_5839_1678"/>
<feBlend mode="normal" in="SourceGraphic" in2="effect1_dropShadow_5839_1678" result="shape"/>
<feColorMatrix in="SourceAlpha" type="matrix" values="0 0 0 0 0 0 0 0 0 0 0 0 0 0 0 0 0 0 127 0" result="hardAlpha"/>
<feOffset dy="-4"/>
<feGaussianBlur stdDeviation="6"/>
<feComposite in2="hardAlpha" operator="arithmetic" k2="-1" k3="1"/>
<feColorMatrix type="matrix" values="0 0 0 0 0.115278 0 0 0 0 0.166 0 0 0 0 0.345833 0 0 0 0.14 0"/>
<feBlend mode="normal" in2="shape" result="effect2_innerShadow_5839_1678"/>
</filter>
<filter id="filter7_di_5839_1678" x="20" y="202" width="79.6836" height="52.999" filterUnits="userSpaceOnUse" color-interpolation-filters="sRGB">
<feFlood flood-opacity="0" result="BackgroundImageFix"/>
<feColorMatrix in="SourceAlpha" type="matrix" values="0 0 0 0 0 0 0 0 0 0 0 0 0 0 0 0 0 0 127 0" result="hardAlpha"/>
<feOffset dy="4"/>
<feGaussianBlur stdDeviation="8"/>
<feColorMatrix type="matrix" values="0 0 0 0 0.191667 0 0 0 0 0.418 0 0 0 0 1 0 0 0 0.37 0"/>
<feBlend mode="normal" in2="BackgroundImageFix" result="effect1_dropShadow_5839_1678"/>
<feBlend mode="normal" in="SourceGraphic" in2="effect1_dropShadow_5839_1678" result="shape"/>
<feColorMatrix in="SourceAlpha" type="matrix" values="0 0 0 0 0 0 0 0 0 0 0 0 0 0 0 0 0 0 127 0" result="hardAlpha"/>
<feOffset dy="-4"/>
<feGaussianBlur stdDeviation="6"/>
<feComposite in2="hardAlpha" operator="arithmetic" k2="-1" k3="1"/>
<feColorMatrix type="matrix" values="0 0 0 0 0.115278 0 0 0 0 0.166 0 0 0 0 0.345833 0 0 0 0.14 0"/>
<feBlend mode="normal" in2="shape" result="effect2_innerShadow_5839_1678"/>
</filter>
<filter id="filter8_di_5839_1678" x="29.1445" y="165.996" width="61.998" height="61.9988" filterUnits="userSpaceOnUse" color-interpolation-filters="sRGB">
<feFlood flood-opacity="0" result="BackgroundImageFix"/>
<feColorMatrix in="SourceAlpha" type="matrix" values="0 0 0 0 0 0 0 0 0 0 0 0 0 0 0 0 0 0 127 0" result="hardAlpha"/>
<feOffset dy="4"/>
<feGaussianBlur stdDeviation="8"/>
<feColorMatrix type="matrix" values="0 0 0 0 0.191667 0 0 0 0 0.418 0 0 0 0 1 0 0 0 0.37 0"/>
<feBlend mode="normal" in2="BackgroundImageFix" result="effect1_dropShadow_5839_1678"/>
<feBlend mode="normal" in="SourceGraphic" in2="effect1_dropShadow_5839_1678" result="shape"/>
<feColorMatrix in="SourceAlpha" type="matrix" values="0 0 0 0 0 0 0 0 0 0 0 0 0 0 0 0 0 0 127 0" result="hardAlpha"/>
<feOffset dy="-4"/>
<feGaussianBlur stdDeviation="6"/>
<feComposite in2="hardAlpha" operator="arithmetic" k2="-1" k3="1"/>
<feColorMatrix type="matrix" values="0 0 0 0 0.115278 0 0 0 0 0.166 0 0 0 0 0.345833 0 0 0 0.14 0"/>
<feBlend mode="normal" in2="shape" result="effect2_innerShadow_5839_1678"/>
</filter>
<clipPath id="clip0_5839_1678">
<rect width="79" height="79" fill="white" transform="translate(174 49)"/>
</clipPath>
<clipPath id="clip1_5839_1678">
<rect width="131" height="82" fill="white" transform="translate(0 186)"/>
</clipPath>
<clipPath id="clip2_5839_1678">
<path d="M200 104H373V236C373 253.673 358.673 268 341 268H200V104Z" fill="white"/>
</clipPath>
</defs>
</svg>
