<svg width="48" height="49" viewBox="0 0 48 49" fill="none" xmlns="http://www.w3.org/2000/svg">
<path d="M10 22.5H18C20.2 22.5 22 20.7 22 18.5V10.5C22 8.3 20.2 6.5 18 6.5H10C7.8 6.5 6 8.3 6 10.5V18.5C6 20.7 7.8 22.5 10 22.5ZM10 10.5H18V18.5H10V10.5ZM10 42.5H18C20.2 42.5 22 40.7 22 38.5V30.5C22 28.3 20.2 26.5 18 26.5H10C7.8 26.5 6 28.3 6 30.5V38.5C6 40.7 7.8 42.5 10 42.5ZM10 30.5H18V38.5H10V30.5ZM26 10.5V18.5C26 20.7 27.8 22.5 30 22.5H38C40.2 22.5 42 20.7 42 18.5V10.5C42 8.3 40.2 6.5 38 6.5H30C27.8 6.5 26 8.3 26 10.5ZM38 18.5H30V10.5H38V18.5ZM42 41.5V39.5C42 38.94 41.56 38.5 41 38.5H39C38.44 38.5 38 38.94 38 39.5V41.5C38 42.06 38.44 42.5 39 42.5H41C41.56 42.5 42 42.06 42 41.5ZM26 27.5V29.5C26 30.06 26.44 30.5 27 30.5H29C29.56 30.5 30 30.06 30 29.5V27.5C30 26.94 29.56 26.5 29 26.5H27C26.44 26.5 26 26.94 26 27.5ZM33 30.5H31C30.44 30.5 30 30.94 30 31.5V33.5C30 34.06 30.44 34.5 31 34.5H33C33.56 34.5 34 34.06 34 33.5V31.5C34 30.94 33.56 30.5 33 30.5ZM26 35.5V37.5C26 38.06 26.44 38.5 27 38.5H29C29.56 38.5 30 38.06 30 37.5V35.5C30 34.94 29.56 34.5 29 34.5H27C26.44 34.5 26 34.94 26 35.5ZM31 42.5H33C33.56 42.5 34 42.06 34 41.5V39.5C34 38.94 33.56 38.5 33 38.5H31C30.44 38.5 30 38.94 30 39.5V41.5C30 42.06 30.44 42.5 31 42.5ZM35 38.5H37C37.56 38.5 38 38.06 38 37.5V35.5C38 34.94 37.56 34.5 37 34.5H35C34.44 34.5 34 34.94 34 35.5V37.5C34 38.06 34.44 38.5 35 38.5ZM37 26.5H35C34.44 26.5 34 26.94 34 27.5V29.5C34 30.06 34.44 30.5 35 30.5H37C37.56 30.5 38 30.06 38 29.5V27.5C38 26.94 37.56 26.5 37 26.5ZM39 34.5H41C41.56 34.5 42 34.06 42 33.5V31.5C42 30.94 41.56 30.5 41 30.5H39C38.44 30.5 38 30.94 38 31.5V33.5C38 34.06 38.44 34.5 39 34.5Z" fill="#30E1C2"/>
</svg>
