<svg width="72" height="50" viewBox="0 0 72 50" fill="none" xmlns="http://www.w3.org/2000/svg">
<g clip-path="url(#clip0_5583_8955)">
<path d="M40.8625 9.01007C32.1186 0.279194 17.9417 0.279194 9.19734 9.01007C1.56984 16.6262 0.59803 28.37 6.2776 37.0402L4.15973 45.5211L12.3392 43.2343C21.0625 49.2424 33.1014 48.3777 40.863 40.6277C49.6064 31.8968 49.6069 17.741 40.8625 9.01007Z" fill="#316BFF"/>
<path opacity="0.6" d="M42.8156 20.866C48.8432 14.8474 58.6154 14.8474 64.643 20.866C69.9008 26.116 70.5705 34.2112 66.6555 40.1877L68.1156 46.0338L62.4777 44.4573C56.4644 48.5988 48.1658 48.0027 42.816 42.6605C36.788 36.6423 36.788 26.8847 42.8156 20.866Z" fill="#6E97FF"/>
<path d="M15.4199 15.9305C19.4043 20.5744 17.7571 19.1265 21.7601 17.2824C25.5339 15.5462 27.996 18.1934 26.8389 20.9999C25.8121 23.4908 23.4539 24.2728 22.3839 26.5711C21.7946 27.8359 22.2757 28.7694 23.1714 32.0347C31.9684 30.8732 24.6957 30.6064 29.4221 25.9607C40.2456 15.3297 24.9269 5.57394 15.4199 15.9305Z" fill="white"/>
<path d="M23.291 37.2885C23.841 41.441 30.2502 40.56 29.7049 36.4414C29.1611 32.3358 22.7428 33.1484 23.291 37.2885Z" fill="white"/>
<path d="M49.084 23.8511C50.7303 27.8296 49.9457 26.5008 53.0287 26.1427C55.934 25.8072 57.0006 28.1169 55.6099 29.7412C54.3763 31.1829 52.627 31.1901 51.4068 32.4936C50.7351 33.2111 50.8519 33.9405 50.7341 36.321C56.8742 37.4692 52.0674 35.6991 56.249 33.6255C65.8235 28.8817 57.7173 19.0032 49.084 23.8511Z" fill="white"/>
<path d="M49.6608 39.861C49.1175 42.7592 53.5983 43.5723 54.1374 40.698C54.675 37.8323 50.2028 36.9719 49.6608 39.861Z" fill="white"/>
<path opacity="0.8" d="M71.9566 49.9807L65.5508 48.1896L65.6183 47.9482L71.609 49.6232L71.3974 48.7766L71.6406 48.7159L71.9566 49.9807Z" fill="#6E97FF"/>
<path d="M25.0393 49.9386C22.0664 49.9386 19.1486 49.4224 16.3672 48.4052L16.4534 48.17C19.2075 49.1772 22.0961 49.6882 25.0393 49.6882C25.7942 49.6882 26.5578 49.6537 27.3094 49.5854C30.299 49.3139 33.1795 48.5175 35.8713 47.2192L35.9805 47.4449C33.2613 48.756 30.3517 49.5605 27.3323 49.8349C26.5731 49.9033 25.8014 49.9386 25.0393 49.9386Z" fill="#316BFF"/>
<path opacity="0.8" d="M46.2387 48.3357C44.7034 47.6445 43.2706 46.741 41.9805 45.6507L42.1428 45.4595C43.4152 46.535 44.8279 47.4255 46.3421 48.1072L46.2387 48.3357Z" fill="#6E97FF"/>
<path d="M4.69055 48.2459L4.62305 48.0045L11.9154 45.9658L11.9609 45.9916L11.9006 46.1078L11.9327 46.2211L4.69055 48.2459Z" fill="#316BFF"/>
<path opacity="0.8" d="M70.1833 43.9155L69.3547 40.5981L69.3791 40.5546C70.8856 37.8834 71.6822 34.8428 71.6822 31.7615C71.6822 31.1449 71.6501 30.5216 71.5865 29.9083C71.327 27.404 70.5625 25.0311 69.3145 22.8557L69.5318 22.731C70.798 24.937 71.5731 27.3428 71.8359 29.8825C71.9 30.5039 71.9326 31.1358 71.9326 31.7611C71.9326 34.8686 71.1336 37.9355 69.6218 40.6339L70.4265 43.8548L70.1833 43.9155Z" fill="#6E97FF"/>
<path d="M1.74488 34.3481C1.10961 32.7993 0.628496 31.1779 0.314453 29.5283L0.560995 29.4814C0.871687 31.1143 1.3485 32.7195 1.97754 34.253L1.74488 34.3481Z" fill="#316BFF"/>
<path d="M0.276759 22.0377L0.0273438 22.0099C0.658301 16.3794 3.21947 11.0678 7.23931 7.05391C7.99952 6.29483 8.81336 5.57924 9.65782 4.92676L9.81149 5.12513C8.97516 5.77093 8.16947 6.47934 7.41692 7.23125C3.43681 11.2045 0.901014 16.4631 0.276759 22.0377Z" fill="#316BFF"/>
<path opacity="0.8" d="M66.2709 18.9359C63.5446 16.2772 60.1141 14.5803 56.3508 14.0291C55.4882 13.9029 54.6073 13.8389 53.7332 13.8389C51.7604 13.8389 49.8153 14.1586 47.9526 14.7896L47.8439 14.8264L47.7305 14.5721L47.9593 14.4689L47.9804 14.5157C49.8364 13.9 51.7709 13.5884 53.7332 13.5884C54.6193 13.5884 55.5126 13.6534 56.3872 13.7815C60.2031 14.3403 63.6815 16.0607 66.4462 18.7566L66.2709 18.9359Z" fill="#6E97FF"/>
<path d="M43.6735 8.32108C43.3436 7.94966 42.997 7.58303 42.6447 7.23074C41.8213 6.40856 40.9357 5.63896 40.0117 4.94297L40.163 4.74316C41.0956 5.44584 41.9903 6.22309 42.8218 7.05339C43.178 7.40903 43.5279 7.77949 43.8611 8.15473L43.6735 8.32108Z" fill="#316BFF"/>
<path d="M14.0383 2.49092L13.9277 2.26625C16.1921 1.1544 18.6096 0.391969 21.1119 0L21.1507 0.24761C18.6733 0.635755 16.2802 1.39054 14.0383 2.49092Z" fill="#316BFF"/>
</g>
<defs>
<clipPath id="clip0_5583_8955">
<rect width="72" height="50" fill="white"/>
</clipPath>
</defs>
</svg>
