<svg width="655" height="557" viewBox="0 0 655 557" fill="none" xmlns="http://www.w3.org/2000/svg">
<path d="M96.5945 327.581H90.5191C79.4472 327.581 70.4336 318.567 70.4336 307.495V301.419C70.4336 300.639 69.7948 300 69.0141 300C68.2334 300 67.5946 300.639 67.5946 301.419V307.495C67.5946 318.567 58.5809 327.581 47.509 327.581H41.4195C40.6388 327.581 40 328.219 40 329C40 329.781 40.6388 330.419 41.4195 330.419H47.4948C58.5667 330.419 67.5804 339.433 67.5804 350.505V356.581C67.5804 357.361 68.2192 358 68.9999 358C69.7806 358 70.4194 357.361 70.4194 356.581V350.505C70.4194 339.433 79.433 330.419 90.5049 330.419H96.5803C97.361 330.419 97.9998 329.781 97.9998 329C98.014 328.219 97.3752 327.581 96.5945 327.581Z" fill="#F7FEFE"/>
<path d="M407.751 534.898H403.39C395.421 534.898 388.933 528.402 388.933 520.421V516.033C388.933 515.473 388.482 515 387.902 515C387.343 515 386.871 515.452 386.871 516.033V520.421C386.871 528.402 380.383 534.898 372.413 534.898H368.031C367.473 534.898 367 535.35 367 535.931C367 536.511 367.451 536.963 368.031 536.963H372.413C380.383 536.963 386.871 543.46 386.871 551.44V555.829C386.871 556.388 387.322 556.861 387.902 556.861C388.46 556.861 388.933 556.409 388.933 555.829V551.44C388.933 543.46 395.421 536.963 403.39 536.963H407.773C408.331 536.963 408.804 536.511 408.804 535.931C408.804 535.35 408.31 534.898 407.751 534.898Z" fill="#F7FEFE"/>
<path d="M505.773 436.898H501.39C493.421 436.898 486.933 430.402 486.933 422.421V418.033C486.933 417.473 486.482 417 485.902 417C485.343 417 484.871 417.452 484.871 418.033V422.421C484.871 430.402 478.383 436.898 470.413 436.898H466.031C465.473 436.898 465 437.35 465 437.931C465 438.511 465.451 438.963 466.031 438.963H470.413C478.383 438.963 484.871 445.46 484.871 453.44V457.829C484.871 458.388 485.322 458.861 485.902 458.861C486.46 458.861 486.933 458.409 486.933 457.829V453.44C486.933 445.46 493.421 438.963 501.39 438.963H505.773C506.331 438.963 506.804 438.511 506.804 437.931C506.804 437.35 506.331 436.898 505.773 436.898Z" fill="#F7FEFE"/>
<path d="M329.147 19.8981H324.765C316.795 19.8981 310.307 13.4016 310.307 5.42087V1.03254C310.307 0.473242 309.856 0 309.276 0C308.718 0 308.245 0.45173 308.245 1.03254V5.42087C308.245 13.4016 301.758 19.8981 293.788 19.8981H289.406C288.847 19.8981 288.375 20.3498 288.375 20.9306C288.375 21.4899 288.826 21.9631 289.406 21.9631H293.788C301.758 21.9631 308.245 28.4596 308.245 36.4403V40.8286C308.245 41.3879 308.696 41.8612 309.276 41.8612C309.835 41.8612 310.307 41.4095 310.307 40.8286V36.4403C310.307 28.4596 316.795 21.9631 324.765 21.9631H329.147C329.706 21.9631 330.178 21.5114 330.178 20.9306C330.178 20.3498 329.706 19.8981 329.147 19.8981Z" fill="#00CBE7"/>
<path d="M52.0097 62.309H46.5103C36.4783 62.309 28.3366 54.1347 28.3366 44.1104V38.6034C28.3366 37.8935 27.7566 37.3127 27.0477 37.3127C26.3388 37.3127 25.7588 37.8935 25.7588 38.6034V44.1104C25.7588 54.1562 17.5957 62.309 7.58515 62.309H2.08578C1.37688 62.309 0.796875 62.8898 0.796875 63.5997C0.796875 64.3096 1.37688 64.8904 2.08578 64.8904H7.58515C17.6172 64.8904 25.7588 73.0647 25.7588 83.089V88.5959C25.7588 89.3058 26.3388 89.8866 27.0477 89.8866C27.7566 89.8866 28.3366 89.3058 28.3366 88.5959V83.089C28.3366 73.0432 36.4997 64.8904 46.5103 64.8904H52.0097C52.7186 64.8904 53.2986 64.3096 53.2986 63.5997C53.2986 62.8898 52.7186 62.309 52.0097 62.309Z" fill="#F7FEFE"/>
<path d="M96.2128 528.996H90.7134C80.6814 528.996 72.5398 520.822 72.5398 510.798V505.291C72.5398 504.581 71.9597 504 71.2508 504C70.5419 504 69.9619 504.581 69.9619 505.291V510.798C69.9619 520.843 61.7988 528.996 51.7883 528.996H46.2889C45.58 528.996 45 529.577 45 530.287C45 530.997 45.58 531.578 46.2889 531.578H51.7883C61.8203 531.578 69.9619 539.752 69.9619 549.776V555.283C69.9619 555.993 70.5419 556.574 71.2508 556.574C71.9597 556.574 72.5398 555.993 72.5398 555.283V549.776C72.5398 539.73 80.7029 531.578 90.7134 531.578H96.2128C96.9217 531.578 97.5017 530.997 97.5017 530.287C97.5017 529.577 96.9217 528.996 96.2128 528.996Z" fill="#F7FEFE"/>
<path d="M592.648 179.797H583.454C566.698 179.797 553.057 166.137 553.057 149.358V140.151C553.057 138.968 552.09 138 550.909 138C549.727 138 548.761 138.968 548.761 140.151V149.358C548.761 166.137 535.12 179.797 518.364 179.797H509.148C507.967 179.797 507 180.765 507 181.948C507 183.131 507.967 184.099 509.148 184.099H518.342C535.098 184.099 548.739 197.759 548.739 214.538V223.744C548.739 224.928 549.706 225.896 550.887 225.896C552.069 225.896 553.036 224.928 553.036 223.744V214.538C553.036 197.759 566.677 184.099 583.432 184.099H592.627C593.808 184.099 594.775 183.131 594.775 181.948C594.775 180.765 593.851 179.797 592.648 179.797Z" fill="#00CBE7"/>
<path d="M653.549 254.914H648.05C638.018 254.914 629.876 246.74 629.876 236.716V231.209C629.876 230.499 629.296 229.918 628.587 229.918C627.878 229.918 627.298 230.499 627.298 231.209V236.716C627.298 246.762 619.135 254.914 609.125 254.914H603.625C602.916 254.914 602.336 255.495 602.336 256.205C602.336 256.915 602.916 257.496 603.625 257.496H609.125C619.157 257.496 627.298 265.67 627.298 275.694V281.201C627.298 281.911 627.878 282.492 628.587 282.492C629.296 282.492 629.876 281.911 629.876 281.201V275.694C629.876 265.649 638.039 257.496 648.05 257.496H653.549C654.258 257.496 654.838 256.915 654.838 256.205C654.838 255.495 654.258 254.914 653.549 254.914Z" fill="#00CBE7"/>
</svg>
